<?xml version="1.0" encoding="UTF-8" standalone="no"?>
<!DOCTYPE svg PUBLIC "-//W3C//DTD SVG 1.1//EN" "http://www.w3.org/Graphics/SVG/1.1/DTD/svg11.dtd">
<!-- Generated by graphviz version 2.40.1 (20161225.0304)
 -->
<!-- Title: %3 Pages: 1 -->
<svg xmlns="http://www.w3.org/2000/svg" xmlns:xlink="http://www.w3.org/1999/xlink" width="1582pt" height="692pt" viewBox="0.00 0.00 1581.71 692.00">
  <g id="graph0" class="graph" transform="scale(1 1) rotate(0) translate(4 688)">
    <title>%3</title>
    <polygon fill="#ffffff" stroke="transparent" points="-4,4 -4,-688 1577.7117,-688 1577.7117,4 -4,4"/>
    <!-- actorTests -->
    <g id="node1" class="node">
      <title>actorTests</title>
      <ellipse fill="none" stroke="#000000" cx="304.567" cy="-162" rx="48.1917" ry="18"/>
      <text fill="#000000" text-anchor="middle" x="304.567" y="-158.3" font-family="Times,serif" font-size="14.00">actorTests</text>
    </g>
    <!-- testkit -->
    <g id="node2" class="node">
      <title>testkit</title>
      <ellipse fill="none" stroke="#000000" cx="338.567" cy="-90" rx="32.4942" ry="18"/>
      <text fill="#000000" text-anchor="middle" x="338.567" y="-86.3" font-family="Times,serif" font-size="14.00">testkit</text>
    </g>
    <!-- actorTests to testkit -->
    <g id="edge1" class="edge">
      <title>actorTests to testkit</title>
      <path fill="none" stroke="#000000" d="M312.9715,-144.2022C316.8829,-135.9192 321.6182,-125.8915 325.9469,-116.7248"/>
      <polygon fill="#000000" stroke="#000000" points="329.1539,-118.1301 330.2591,-107.593 322.8241,-115.141 329.1539,-118.1301"/>
    </g>
    <!-- actor -->
    <g id="node4" class="node">
      <title>actor</title>
      <ellipse fill="green" stroke="#000000" cx="436.567" cy="-18" rx="28.6953" ry="18"/>
      <text fill="white" text-anchor="middle" x="436.567" y="-14.3" font-family="Times,serif" font-size="14.00">actor</text>
    </g>
    <!-- testkit to actor -->
    <g id="edge58" class="edge">
      <title>testkit to actor</title>
      <path fill="none" stroke="#000000" d="M358.3987,-75.4297C373.0278,-64.6819 393.1104,-49.9272 409.2567,-38.0647"/>
      <polygon fill="#000000" stroke="#000000" points="411.7756,-40.5571 417.7622,-31.8158 407.6311,-34.916 411.7756,-40.5571"/>
    </g>
    <!-- agent -->
    <g id="node3" class="node">
      <title>agent</title>
      <ellipse fill="none" stroke="#000000" cx="477.567" cy="-162" rx="30.5947" ry="18"/>
      <text fill="#000000" text-anchor="middle" x="477.567" y="-158.3" font-family="Times,serif" font-size="14.00">agent</text>
    </g>
    <!-- agent to testkit -->
    <g id="edge2" class="edge">
      <title>agent to testkit</title>
      <path fill="none" stroke="#000000" d="M454.6139,-150.1107C431.9511,-138.3716 397.0673,-120.3024 371.461,-107.0386"/>
      <polygon fill="#000000" stroke="#000000" points="372.9759,-103.8817 362.4866,-102.39 369.7563,-110.0974 372.9759,-103.8817"/>
    </g>
    <!-- agent to actor -->
    <g id="edge3" class="edge">
      <title>agent to actor</title>
      <path fill="none" stroke="#000000" d="M457.0052,-148.3771C444.4694,-138.7641 429.5567,-124.6581 422.567,-108 414.1524,-87.9461 418.8196,-63.4638 424.9413,-45.0992"/>
      <polygon fill="#000000" stroke="#000000" points="428.2702,-46.1867 428.4181,-35.5929 421.6961,-43.7823 428.2702,-46.1867"/>
    </g>
    <!-- camel -->
    <g id="node5" class="node">
      <title>camel</title>
      <ellipse fill="none" stroke="#000000" cx="41.567" cy="-234" rx="32.4942" ry="18"/>
      <text fill="#000000" text-anchor="middle" x="41.567" y="-230.3" font-family="Times,serif" font-size="14.00">camel</text>
    </g>
    <!-- camel to testkit -->
    <g id="edge4" class="edge">
      <title>camel to testkit</title>
      <path fill="none" stroke="#000000" d="M52.1007,-216.5735C65.4429,-196.0315 90.3728,-162.3715 120.567,-144 175.3798,-110.6493 249.7997,-97.8619 295.9724,-92.9819"/>
      <polygon fill="#000000" stroke="#000000" points="296.3322,-96.4635 305.9432,-92.0049 295.6495,-89.4969 296.3322,-96.4635"/>
    </g>
    <!-- camel to actor -->
    <g id="edge5" class="edge">
      <title>camel to actor</title>
      <path fill="none" stroke="#000000" d="M26.2309,-217.7861C10.4063,-199.0099 -9.9452,-167.6366 5.567,-144 49.5709,-76.9491 301.2539,-36.2866 398.3581,-22.9075"/>
      <polygon fill="#000000" stroke="#000000" points="398.9007,-26.3661 408.3395,-21.5537 397.9598,-19.4296 398.9007,-26.3661"/>
    </g>
    <!-- slf4j -->
    <g id="node6" class="node">
      <title>slf4j</title>
      <ellipse fill="none" stroke="#000000" cx="41.567" cy="-162" rx="27" ry="18"/>
      <text fill="#000000" text-anchor="middle" x="41.567" y="-158.3" font-family="Times,serif" font-size="14.00">slf4j</text>
    </g>
    <!-- camel to slf4j -->
    <g id="edge6" class="edge">
      <title>camel to slf4j</title>
      <path fill="none" stroke="#000000" d="M41.567,-215.8314C41.567,-208.131 41.567,-198.9743 41.567,-190.4166"/>
      <polygon fill="#000000" stroke="#000000" points="45.0671,-190.4132 41.567,-180.4133 38.0671,-190.4133 45.0671,-190.4132"/>
    </g>
    <!-- slf4j to testkit -->
    <g id="edge47" class="edge">
      <title>slf4j to testkit</title>
      <path fill="none" stroke="#000000" d="M63.8013,-151.2465C69.7983,-148.6214 76.3498,-145.9969 82.567,-144 156.4047,-120.2835 245.6233,-104.1822 296.8626,-96.0877"/>
      <polygon fill="#000000" stroke="#000000" points="297.5505,-99.5229 306.8945,-94.5289 296.4757,-92.6059 297.5505,-99.5229"/>
    </g>
    <!-- slf4j to actor -->
    <g id="edge48" class="edge">
      <title>slf4j to actor</title>
      <path fill="none" stroke="#000000" d="M63.0619,-150.7002C67.7886,-148.3712 72.8054,-146.0165 77.567,-144 193.3265,-94.9764 335.3832,-49.2052 400.6577,-28.9454"/>
      <polygon fill="#000000" stroke="#000000" points="401.9382,-32.2131 410.4588,-25.9163 399.8712,-25.5252 401.9382,-32.2131"/>
    </g>
    <!-- cluster -->
    <g id="node7" class="node">
      <title>cluster</title>
      <ellipse fill="none" stroke="#000000" cx="452.567" cy="-450" rx="34.394" ry="18"/>
      <text fill="#000000" text-anchor="middle" x="452.567" y="-446.3" font-family="Times,serif" font-size="14.00">cluster</text>
    </g>
    <!-- cluster to testkit -->
    <g id="edge7" class="edge">
      <title>cluster to testkit</title>
      <path fill="none" stroke="#000000" d="M423.4544,-440.3348C362.8479,-418.3565 224.8377,-358.14 177.567,-252 157.673,-207.3308 165.4785,-180.0037 198.567,-144 224.0654,-116.2551 265.4456,-102.6236 296.6195,-96.0143"/>
      <polygon fill="#000000" stroke="#000000" points="297.6196,-99.3851 306.7625,-94.0319 296.2768,-92.5151 297.6196,-99.3851"/>
    </g>
    <!-- remote -->
    <g id="node8" class="node">
      <title>remote</title>
      <ellipse fill="none" stroke="#000000" cx="462.567" cy="-234" rx="36.2938" ry="18"/>
      <text fill="#000000" text-anchor="middle" x="462.567" y="-230.3" font-family="Times,serif" font-size="14.00">remote</text>
    </g>
    <!-- cluster to remote -->
    <g id="edge8" class="edge">
      <title>cluster to remote</title>
      <path fill="none" stroke="#000000" d="M462.1108,-432.5848C467.2087,-422.2797 472.9587,-408.7797 475.567,-396 484.9957,-349.8017 476.5754,-294.8874 469.591,-262.3218"/>
      <polygon fill="#000000" stroke="#000000" points="472.9183,-261.1653 467.3053,-252.1794 466.0895,-262.7043 472.9183,-261.1653"/>
    </g>
    <!-- remoteTests -->
    <g id="node9" class="node">
      <title>remoteTests</title>
      <ellipse fill="none" stroke="#000000" cx="411.567" cy="-378" rx="55.4913" ry="18"/>
      <text fill="#000000" text-anchor="middle" x="411.567" y="-374.3" font-family="Times,serif" font-size="14.00">remoteTests</text>
    </g>
    <!-- cluster to remoteTests -->
    <g id="edge9" class="edge">
      <title>cluster to remoteTests</title>
      <path fill="none" stroke="#000000" d="M442.642,-432.5708C437.8784,-424.2055 432.0658,-413.998 426.7619,-404.6839"/>
      <polygon fill="#000000" stroke="#000000" points="429.6752,-402.7268 421.6853,-395.7689 423.5923,-406.1907 429.6752,-402.7268"/>
    </g>
    <!-- remote to actorTests -->
    <g id="edge37" class="edge">
      <title>remote to actorTests</title>
      <path fill="none" stroke="#000000" d="M435.7644,-221.7862C410.7684,-210.3956 373.1532,-193.2545 344.5993,-180.2426"/>
      <polygon fill="#000000" stroke="#000000" points="345.8456,-176.9643 335.2945,-176.0024 342.9429,-183.3341 345.8456,-176.9643"/>
    </g>
    <!-- remote to testkit -->
    <g id="edge38" class="edge">
      <title>remote to testkit</title>
      <path fill="none" stroke="#000000" d="M443.9522,-218.2829C432.1358,-207.9252 416.8189,-193.7757 404.567,-180 386.308,-159.4703 368.0274,-134.0712 355.3509,-115.4956"/>
      <polygon fill="#000000" stroke="#000000" points="358.0972,-113.3081 349.6028,-106.976 352.2944,-117.2232 358.0972,-113.3081"/>
    </g>
    <!-- remote to actor -->
    <g id="edge39" class="edge">
      <title>remote to actor</title>
      <path fill="none" stroke="#000000" d="M484.249,-219.5108C496.5412,-209.9259 510.7844,-196.1645 517.567,-180 523.7576,-165.2462 525.5499,-157.8663 517.567,-144 501.6691,-116.3854 474.2464,-133.8145 455.567,-108 442.6727,-90.1805 438.1534,-65.4833 436.7296,-46.4674"/>
      <polygon fill="#000000" stroke="#000000" points="440.2159,-46.1062 436.2162,-36.2954 433.2248,-46.4592 440.2159,-46.1062"/>
    </g>
    <!-- protobuf -->
    <g id="node18" class="node">
      <title>protobuf</title>
      <ellipse fill="green" stroke="#000000" cx="651.567" cy="-18" rx="43.5923" ry="18"/>
      <text fill="white" text-anchor="middle" x="651.567" y="-14.3" font-family="Times,serif" font-size="14.00">protobuf</text>
    </g>
    <!-- remote to protobuf -->
    <g id="edge40" class="edge">
      <title>remote to protobuf</title>
      <path fill="none" stroke="#000000" d="M485.1764,-219.8627C500.1788,-209.8352 519.7577,-195.4568 534.567,-180 574.8215,-137.9851 573.9773,-118.7892 608.567,-72 615.6577,-62.4084 623.7347,-52.1124 630.9592,-43.1097"/>
      <polygon fill="#000000" stroke="#000000" points="633.7375,-45.2401 637.3015,-35.2627 628.2934,-40.8399 633.7375,-45.2401"/>
    </g>
    <!-- stream -->
    <g id="node20" class="node">
      <title>stream</title>
      <ellipse fill="green" stroke="#000000" cx="902.567" cy="-90" rx="34.394" ry="18"/>
      <text fill="white" text-anchor="middle" x="902.567" y="-86.3" font-family="Times,serif" font-size="14.00">stream</text>
    </g>
    <!-- remote to stream -->
    <g id="edge41" class="edge">
      <title>remote to stream</title>
      <path fill="none" stroke="#000000" d="M498.2266,-229.8955C565.3415,-221.7551 707.6301,-202.4041 751.567,-180 772.2925,-169.4317 770.3934,-157.1761 789.567,-144 813.0865,-127.8373 842.1921,-114.0535 864.9736,-104.4576"/>
      <polygon fill="#000000" stroke="#000000" points="866.4038,-107.6539 874.3152,-100.6068 863.736,-101.1822 866.4038,-107.6539"/>
    </g>
    <!-- streamTestkit -->
    <g id="node21" class="node">
      <title>streamTestkit</title>
      <ellipse fill="none" stroke="#000000" cx="858.567" cy="-162" rx="59.5901" ry="18"/>
      <text fill="#000000" text-anchor="middle" x="858.567" y="-158.3" font-family="Times,serif" font-size="14.00">streamTestkit</text>
    </g>
    <!-- remote to streamTestkit -->
    <g id="edge42" class="edge">
      <title>remote to streamTestkit</title>
      <path fill="none" stroke="#000000" d="M497.9811,-228.9194C557.4421,-220.1973 681.0099,-201.249 784.567,-180 790.6018,-178.7617 796.8912,-177.3779 803.1426,-175.9425"/>
      <polygon fill="#000000" stroke="#000000" points="803.9551,-179.3471 812.893,-173.6581 802.3582,-172.5316 803.9551,-179.3471"/>
    </g>
    <!-- remoteTests to actorTests -->
    <g id="edge43" class="edge">
      <title>remoteTests to actorTests</title>
      <path fill="none" stroke="#000000" d="M367.1474,-367.2599C329.3323,-357.1116 279.3153,-340.9528 267.567,-324 258.4534,-310.8492 259.0814,-301.5645 267.567,-288 286.964,-256.993 322.1699,-283.007 341.567,-252 354.3869,-231.5068 341.3171,-205.8059 327.2936,-187.1209"/>
      <polygon fill="#000000" stroke="#000000" points="329.8456,-184.7075 320.8729,-179.0735 324.3738,-189.0732 329.8456,-184.7075"/>
    </g>
    <!-- remoteTests to remote -->
    <g id="edge44" class="edge">
      <title>remoteTests to remote</title>
      <path fill="none" stroke="#000000" d="M421.3003,-359.8601C426.5799,-349.5439 432.9505,-336.2708 437.567,-324 445.2043,-303.6994 451.6854,-280.0444 456.1336,-262.0815"/>
      <polygon fill="#000000" stroke="#000000" points="459.5671,-262.7735 458.5112,-252.2314 452.7625,-261.131 459.5671,-262.7735"/>
    </g>
    <!-- multiNodeTestkit -->
    <g id="node16" class="node">
      <title>multiNodeTestkit</title>
      <ellipse fill="none" stroke="#000000" cx="352.567" cy="-306" rx="76.0865" ry="18"/>
      <text fill="#000000" text-anchor="middle" x="352.567" y="-302.3" font-family="Times,serif" font-size="14.00">multiNodeTestkit</text>
    </g>
    <!-- remoteTests to multiNodeTestkit -->
    <g id="edge45" class="edge">
      <title>remoteTests to multiNodeTestkit</title>
      <path fill="none" stroke="#000000" d="M397.2847,-360.5708C390.1442,-351.857 381.3656,-341.1441 373.4828,-331.5244"/>
      <polygon fill="#000000" stroke="#000000" points="376.173,-329.2853 367.1276,-323.7689 370.7586,-333.7221 376.173,-329.2853"/>
    </g>
    <!-- remoteTests to streamTestkit -->
    <g id="edge46" class="edge">
      <title>remoteTests to streamTestkit</title>
      <path fill="none" stroke="#000000" d="M463.1216,-371.2973C531.3438,-361.8407 647.4346,-343.542 685.567,-324 719.8825,-306.414 796.6785,-227.7476 835.3612,-186.8622"/>
      <polygon fill="#000000" stroke="#000000" points="838.0316,-189.1319 842.3439,-179.4544 832.9378,-184.3305 838.0316,-189.1319"/>
    </g>
    <!-- clusterMetrics -->
    <g id="node10" class="node">
      <title>clusterMetrics</title>
      <ellipse fill="none" stroke="#000000" cx="376.567" cy="-522" rx="61.99" ry="18"/>
      <text fill="#000000" text-anchor="middle" x="376.567" y="-518.3" font-family="Times,serif" font-size="14.00">clusterMetrics</text>
    </g>
    <!-- clusterMetrics to cluster -->
    <g id="edge10" class="edge">
      <title>clusterMetrics to cluster</title>
      <path fill="none" stroke="#000000" d="M394.9644,-504.5708C405.0039,-495.0597 417.5572,-483.1671 428.3801,-472.9139"/>
      <polygon fill="#000000" stroke="#000000" points="431.0419,-475.2135 435.8943,-465.7951 426.2276,-470.1318 431.0419,-475.2135"/>
    </g>
    <!-- clusterSharding -->
    <g id="node11" class="node">
      <title>clusterSharding</title>
      <ellipse fill="none" stroke="#000000" cx="690.567" cy="-594" rx="68.7879" ry="18"/>
      <text fill="#000000" text-anchor="middle" x="690.567" y="-590.3" font-family="Times,serif" font-size="14.00">clusterSharding</text>
    </g>
    <!-- clusterSharding to cluster -->
    <g id="edge11" class="edge">
      <title>clusterSharding to cluster</title>
      <path fill="none" stroke="#000000" d="M708.6172,-576.5708C726.4436,-557.2412 748.6227,-525.9005 730.567,-504 701.5247,-468.7737 568.3132,-456.2382 497.3569,-452.0103"/>
      <polygon fill="#000000" stroke="#000000" points="497.1253,-448.4917 486.9441,-451.4229 496.731,-455.4806 497.1253,-448.4917"/>
    </g>
    <!-- distributedData -->
    <g id="node12" class="node">
      <title>distributedData</title>
      <ellipse fill="none" stroke="#000000" cx="653.567" cy="-522" rx="67.6881" ry="18"/>
      <text fill="#000000" text-anchor="middle" x="653.567" y="-518.3" font-family="Times,serif" font-size="14.00">distributedData</text>
    </g>
    <!-- clusterSharding to distributedData -->
    <g id="edge12" class="edge">
      <title>clusterSharding to distributedData</title>
      <path fill="none" stroke="#000000" d="M681.2303,-575.8314C677.0356,-567.6688 672.0002,-557.87 667.3817,-548.8827"/>
      <polygon fill="#000000" stroke="#000000" points="670.4562,-547.208 662.7725,-539.9134 664.2302,-550.4075 670.4562,-547.208"/>
    </g>
    <!-- persistence -->
    <g id="node13" class="node">
      <title>persistence</title>
      <ellipse fill="none" stroke="#000000" cx="691.567" cy="-162" rx="50.8918" ry="18"/>
      <text fill="#000000" text-anchor="middle" x="691.567" y="-158.3" font-family="Times,serif" font-size="14.00">persistence</text>
    </g>
    <!-- clusterSharding to persistence -->
    <g id="edge13" class="edge">
      <title>clusterSharding to persistence</title>
      <path fill="none" stroke="#000000" d="M716.2629,-577.1948C728.1751,-567.8311 741.1035,-555.0267 747.567,-540 753.889,-525.302 748.864,-519.9473 747.567,-504 737.9939,-386.2935 710.1797,-248.0316 697.7242,-189.9322"/>
      <polygon fill="#000000" stroke="#000000" points="701.1196,-189.074 695.5851,-180.0397 694.2777,-190.5535 701.1196,-189.074"/>
    </g>
    <!-- clusterTools -->
    <g id="node14" class="node">
      <title>clusterTools</title>
      <ellipse fill="none" stroke="#000000" cx="512.567" cy="-522" rx="55.7903" ry="18"/>
      <text fill="#000000" text-anchor="middle" x="512.567" y="-518.3" font-family="Times,serif" font-size="14.00">clusterTools</text>
    </g>
    <!-- clusterSharding to clusterTools -->
    <g id="edge14" class="edge">
      <title>clusterSharding to clusterTools</title>
      <path fill="none" stroke="#000000" d="M652.8177,-578.7307C624.8533,-567.4192 586.6485,-551.9656 557.1748,-540.0436"/>
      <polygon fill="#000000" stroke="#000000" points="558.1243,-536.6523 547.5415,-536.147 555.4994,-543.1415 558.1243,-536.6523"/>
    </g>
    <!-- distributedData to cluster -->
    <g id="edge21" class="edge">
      <title>distributedData to cluster</title>
      <path fill="none" stroke="#000000" d="M612.8916,-507.4297C577.2891,-494.6766 525.9379,-476.2821 491.0132,-463.7718"/>
      <polygon fill="#000000" stroke="#000000" points="491.7764,-460.3275 481.1819,-460.2501 489.4158,-466.9174 491.7764,-460.3275"/>
    </g>
    <!-- persistence to testkit -->
    <g id="edge25" class="edge">
      <title>persistence to testkit</title>
      <path fill="none" stroke="#000000" d="M647.573,-153.0267C578.6272,-138.9641 446.111,-111.9353 379.2596,-98.2999"/>
      <polygon fill="#000000" stroke="#000000" points="379.6117,-94.7997 369.1139,-96.2305 378.2127,-101.6585 379.6117,-94.7997"/>
    </g>
    <!-- persistence to actor -->
    <g id="edge26" class="edge">
      <title>persistence to actor</title>
      <path fill="none" stroke="#000000" d="M664.2775,-146.5895C616.2587,-119.473 517.0104,-63.4269 466.9096,-35.1347"/>
      <polygon fill="#000000" stroke="#000000" points="468.5786,-32.0577 458.1501,-30.1881 465.1366,-38.153 468.5786,-32.0577"/>
    </g>
    <!-- persistence to protobuf -->
    <g id="edge27" class="edge">
      <title>persistence to protobuf</title>
      <path fill="none" stroke="#000000" d="M686.5818,-144.0535C679.7551,-119.4774 667.4283,-75.1008 659.3718,-46.0974"/>
      <polygon fill="#000000" stroke="#000000" points="662.6638,-44.8711 656.6149,-36.1727 655.9191,-46.7447 662.6638,-44.8711"/>
    </g>
    <!-- clusterTools to cluster -->
    <g id="edge15" class="edge">
      <title>clusterTools to cluster</title>
      <path fill="none" stroke="#000000" d="M498.0426,-504.5708C490.5643,-495.5968 481.3193,-484.5028 473.1219,-474.666"/>
      <polygon fill="#000000" stroke="#000000" points="475.635,-472.2145 466.5444,-466.7729 470.2575,-476.6958 475.635,-472.2145"/>
    </g>
    <!-- contrib -->
    <g id="node15" class="node">
      <title>contrib</title>
      <ellipse fill="none" stroke="#000000" cx="248.567" cy="-594" rx="37.0935" ry="18"/>
      <text fill="#000000" text-anchor="middle" x="248.567" y="-590.3" font-family="Times,serif" font-size="14.00">contrib</text>
    </g>
    <!-- contrib to cluster -->
    <g id="edge16" class="edge">
      <title>contrib to cluster</title>
      <path fill="none" stroke="#000000" d="M255.7302,-575.9645C264.5997,-555.7892 281.5335,-523.4006 305.567,-504 335.9195,-479.4984 378.4222,-465.4991 409.9226,-457.9261"/>
      <polygon fill="#000000" stroke="#000000" points="410.7629,-461.3244 419.7341,-455.688 409.2061,-454.4997 410.7629,-461.3244"/>
    </g>
    <!-- contrib to remote -->
    <g id="edge17" class="edge">
      <title>contrib to remote</title>
      <path fill="none" stroke="#000000" d="M243.2566,-575.9435C229.2856,-524.3628 197.217,-374.5196 267.567,-288 277.2221,-276.1256 364.0955,-255.3942 418.5823,-243.3669"/>
      <polygon fill="#000000" stroke="#000000" points="419.6645,-246.7129 428.6843,-241.1546 418.167,-239.875 419.6645,-246.7129"/>
    </g>
    <!-- contrib to remoteTests -->
    <g id="edge18" class="edge">
      <title>contrib to remoteTests</title>
      <path fill="none" stroke="#000000" d="M250.0803,-575.9018C252.3559,-556.8283 257.9596,-526.4913 271.567,-504 298.2563,-459.8857 345.1788,-422.314 377.2856,-399.9607"/>
      <polygon fill="#000000" stroke="#000000" points="379.6337,-402.5955 385.9193,-394.0666 375.687,-396.8142 379.6337,-402.5955"/>
    </g>
    <!-- contrib to persistence -->
    <g id="edge19" class="edge">
      <title>contrib to persistence</title>
      <path fill="none" stroke="#000000" d="M232.8197,-577.3378C210.5588,-551.9644 172.567,-501.1655 172.567,-450 172.567,-450 172.567,-450 172.567,-378 172.567,-327.3255 201.5986,-317.8244 242.567,-288 280.4182,-260.4449 298.3637,-270.041 341.567,-252 376.0563,-237.5978 382.0709,-227.7032 417.567,-216 489.9586,-192.1322 576.7733,-177.214 632.994,-169.2548"/>
      <polygon fill="#000000" stroke="#000000" points="633.7012,-172.6903 643.1252,-167.849 632.7391,-165.7567 633.7012,-172.6903"/>
    </g>
    <!-- contrib to clusterTools -->
    <g id="edge20" class="edge">
      <title>contrib to clusterTools</title>
      <path fill="none" stroke="#000000" d="M280.9813,-585.2594C320.379,-574.623 388.8758,-556.0895 447.567,-540 451.6324,-538.8855 455.8398,-537.7285 460.0688,-536.563"/>
      <polygon fill="#000000" stroke="#000000" points="461.2111,-539.8787 469.9194,-533.8441 459.3486,-533.131 461.2111,-539.8787"/>
    </g>
    <!-- multiNodeTestkit to testkit -->
    <g id="edge22" class="edge">
      <title>multiNodeTestkit to testkit</title>
      <path fill="none" stroke="#000000" d="M295.0495,-294.1336C254.0422,-284.3709 204.0485,-269.3513 191.567,-252 160.9979,-209.5044 200.0439,-179.4446 238.567,-144 257.1182,-126.9312 282.0607,-113.4494 302.3941,-104.2257"/>
      <polygon fill="#000000" stroke="#000000" points="303.9079,-107.3837 311.6642,-100.1664 301.1,-100.9715 303.9079,-107.3837"/>
    </g>
    <!-- multiNodeTestkit to remote -->
    <g id="edge23" class="edge">
      <title>multiNodeTestkit to remote</title>
      <path fill="none" stroke="#000000" d="M378.6354,-288.937C394.6495,-278.4551 415.2382,-264.9788 432.0159,-253.997"/>
      <polygon fill="#000000" stroke="#000000" points="433.9476,-256.9158 440.3978,-248.5107 430.114,-251.0589 433.9476,-256.9158"/>
    </g>
    <!-- osgi -->
    <g id="node17" class="node">
      <title>osgi</title>
      <ellipse fill="none" stroke="#000000" cx="491.567" cy="-90" rx="27" ry="18"/>
      <text fill="#000000" text-anchor="middle" x="491.567" y="-86.3" font-family="Times,serif" font-size="14.00">osgi</text>
    </g>
    <!-- osgi to actor -->
    <g id="edge24" class="edge">
      <title>osgi to actor</title>
      <path fill="none" stroke="#000000" d="M479.0866,-73.6621C472.0545,-64.4564 463.1323,-52.7764 455.2787,-42.4953"/>
      <polygon fill="#000000" stroke="#000000" points="457.8497,-40.0953 448.9979,-34.2733 452.287,-44.3446 457.8497,-40.0953"/>
    </g>
    <!-- persistenceQuery -->
    <g id="node19" class="node">
      <title>persistenceQuery</title>
      <ellipse fill="none" stroke="#000000" cx="906.567" cy="-234" rx="74.187" ry="18"/>
      <text fill="#000000" text-anchor="middle" x="906.567" y="-230.3" font-family="Times,serif" font-size="14.00">persistenceQuery</text>
    </g>
    <!-- persistenceQuery to persistence -->
    <g id="edge28" class="edge">
      <title>persistenceQuery to persistence</title>
      <path fill="none" stroke="#000000" d="M863.0585,-219.4297C826.7894,-207.2838 775.2407,-190.021 738.1429,-177.5975"/>
      <polygon fill="#000000" stroke="#000000" points="739.1589,-174.2468 728.565,-174.39 736.936,-180.8845 739.1589,-174.2468"/>
    </g>
    <!-- persistenceQuery to stream -->
    <g id="edge29" class="edge">
      <title>persistenceQuery to stream</title>
      <path fill="none" stroke="#000000" d="M915.5051,-216.0042C920.1063,-205.733 925.23,-192.457 927.567,-180 930.5171,-164.2743 931.0085,-159.6255 927.567,-144 925.5004,-134.6171 921.6359,-124.9249 917.5527,-116.3864"/>
      <polygon fill="#000000" stroke="#000000" points="920.59,-114.6378 912.9337,-107.3144 914.352,-117.8139 920.59,-114.6378"/>
    </g>
    <!-- persistenceQuery to streamTestkit -->
    <g id="edge30" class="edge">
      <title>persistenceQuery to streamTestkit</title>
      <path fill="none" stroke="#000000" d="M894.7018,-216.2022C889.1056,-207.8079 882.3148,-197.6218 876.1375,-188.3558"/>
      <polygon fill="#000000" stroke="#000000" points="878.9212,-186.2216 870.462,-179.8425 873.0969,-190.1045 878.9212,-186.2216"/>
    </g>
    <!-- stream to actor -->
    <g id="edge49" class="edge">
      <title>stream to actor</title>
      <path fill="none" stroke="#000000" d="M869.427,-84.8797C785.2211,-71.8693 563.423,-37.6001 474.3688,-23.8406"/>
      <polygon fill="#000000" stroke="#000000" points="474.849,-20.3734 464.4318,-22.3053 473.7801,-27.2913 474.849,-20.3734"/>
    </g>
    <!-- stream to protobuf -->
    <g id="edge50" class="edge">
      <title>stream to protobuf</title>
      <path fill="none" stroke="#000000" d="M872.2905,-81.3151C828.7737,-68.8322 748.2014,-45.7198 697.3742,-31.1399"/>
      <polygon fill="#000000" stroke="#000000" points="698.2026,-27.7365 687.6251,-28.3434 696.2724,-34.4651 698.2026,-27.7365"/>
    </g>
    <!-- streamTestkit to testkit -->
    <g id="edge51" class="edge">
      <title>streamTestkit to testkit</title>
      <path fill="none" stroke="#000000" d="M806.939,-152.8257C789.3921,-149.838 769.6505,-146.6193 751.567,-144 620.4107,-125.0026 586.8531,-126.0779 455.567,-108 430.4335,-104.5391 402.3328,-100.2304 379.9711,-96.6963"/>
      <polygon fill="#000000" stroke="#000000" points="380.2387,-93.1949 369.8132,-95.0819 379.1399,-100.1082 380.2387,-93.1949"/>
    </g>
    <!-- streamTestkit to stream -->
    <g id="edge52" class="edge">
      <title>streamTestkit to stream</title>
      <path fill="none" stroke="#000000" d="M869.4434,-144.2022C874.6504,-135.6817 880.9856,-125.315 886.7157,-115.9385"/>
      <polygon fill="#000000" stroke="#000000" points="889.7394,-117.7025 891.9675,-107.3446 883.7665,-114.0523 889.7394,-117.7025"/>
    </g>
    <!-- persistenceShared -->
    <g id="node22" class="node">
      <title>persistenceShared</title>
      <ellipse fill="none" stroke="#000000" cx="599.567" cy="-306" rx="76.8869" ry="18"/>
      <text fill="#000000" text-anchor="middle" x="599.567" y="-302.3" font-family="Times,serif" font-size="14.00">persistenceShared</text>
    </g>
    <!-- persistenceShared to testkit -->
    <g id="edge31" class="edge">
      <title>persistenceShared to testkit</title>
      <path fill="none" stroke="#000000" d="M584.2928,-288.142C567.0459,-268.7174 537.4714,-237.5624 507.567,-216 479.1901,-195.539 465.3765,-201.2257 437.567,-180 420.3133,-166.831 420.3401,-158.9104 404.567,-144 392.4163,-132.514 378.1413,-120.6526 365.9811,-110.9826"/>
      <polygon fill="#000000" stroke="#000000" points="367.9768,-108.0994 357.9525,-104.6696 363.65,-113.6021 367.9768,-108.0994"/>
    </g>
    <!-- persistenceShared to remote -->
    <g id="edge32" class="edge">
      <title>persistenceShared to remote</title>
      <path fill="none" stroke="#000000" d="M568.1364,-289.4817C546.8464,-278.2928 518.7198,-263.511 496.8523,-252.0186"/>
      <polygon fill="#000000" stroke="#000000" points="498.3823,-248.8688 487.902,-247.3148 495.1257,-255.0652 498.3823,-248.8688"/>
    </g>
    <!-- persistenceShared to persistence -->
    <g id="edge33" class="edge">
      <title>persistenceShared to persistence</title>
      <path fill="none" stroke="#000000" d="M611.0328,-288.0535C627.0277,-263.0179 656.1504,-217.4347 674.6446,-188.4872"/>
      <polygon fill="#000000" stroke="#000000" points="677.8111,-190.0317 680.2456,-179.7204 671.9122,-186.263 677.8111,-190.0317"/>
    </g>
    <!-- persistenceShared to protobuf -->
    <g id="edge34" class="edge">
      <title>persistenceShared to protobuf</title>
      <path fill="none" stroke="#000000" d="M602.8198,-287.9843C611.6111,-239.2939 635.8954,-104.7961 646.5011,-46.0573"/>
      <polygon fill="#000000" stroke="#000000" points="649.9828,-46.4717 648.3154,-36.0089 643.0941,-45.2278 649.9828,-46.4717"/>
    </g>
    <!-- persistenceTck -->
    <g id="node23" class="node">
      <title>persistenceTck</title>
      <ellipse fill="none" stroke="#000000" cx="266.567" cy="-234" rx="65.7887" ry="18"/>
      <text fill="#000000" text-anchor="middle" x="266.567" y="-230.3" font-family="Times,serif" font-size="14.00">persistenceTck</text>
    </g>
    <!-- persistenceTck to testkit -->
    <g id="edge35" class="edge">
      <title>persistenceTck to testkit</title>
      <path fill="none" stroke="#000000" d="M255.7669,-215.9528C245.9116,-196.9219 234.6869,-166.6202 247.567,-144 258.8941,-124.1071 280.7548,-110.7859 300.2109,-102.352"/>
      <polygon fill="#000000" stroke="#000000" points="301.5496,-105.5861 309.5122,-98.5969 298.929,-99.0951 301.5496,-105.5861"/>
    </g>
    <!-- persistenceTck to persistence -->
    <g id="edge36" class="edge">
      <title>persistenceTck to persistence</title>
      <path fill="none" stroke="#000000" d="M316.3908,-222.2555C326.3607,-220.0563 336.7778,-217.8653 346.567,-216 447.1131,-196.8414 565.0943,-179.4661 633.7814,-169.8548"/>
      <polygon fill="#000000" stroke="#000000" points="634.5394,-173.2831 643.9608,-168.4369 633.5735,-166.3501 634.5394,-173.2831"/>
    </g>
    <!-- streamTests -->
    <g id="node24" class="node">
      <title>streamTests</title>
      <ellipse fill="none" stroke="#000000" cx="824.567" cy="-306" rx="53.8905" ry="18"/>
      <text fill="#000000" text-anchor="middle" x="824.567" y="-302.3" font-family="Times,serif" font-size="14.00">streamTests</text>
    </g>
    <!-- streamTests to remote -->
    <g id="edge53" class="edge">
      <title>streamTests to remote</title>
      <path fill="none" stroke="#000000" d="M777.9829,-296.7347C707.6906,-282.7539 575.4359,-256.4491 506.6483,-242.7676"/>
      <polygon fill="#000000" stroke="#000000" points="507.0641,-239.2818 496.5734,-240.7637 505.6985,-246.1473 507.0641,-239.2818"/>
    </g>
    <!-- streamTests to stream -->
    <g id="edge54" class="edge">
      <title>streamTests to stream</title>
      <path fill="none" stroke="#000000" d="M877.0382,-301.8081C971.4414,-293.7312 1161.9722,-274.7816 1181.567,-252 1255.0423,-166.5749 1040.7547,-115.3702 945.5919,-97.3549"/>
      <polygon fill="#000000" stroke="#000000" points="946.1542,-93.8995 935.6837,-95.5177 944.878,-100.7822 946.1542,-93.8995"/>
    </g>
    <!-- streamTests to streamTestkit -->
    <g id="edge55" class="edge">
      <title>streamTests to streamTestkit</title>
      <path fill="none" stroke="#000000" d="M821.3085,-287.9836C818.6673,-269.5023 816.4324,-240.125 823.567,-216 826.4828,-206.1404 831.8254,-196.3909 837.4733,-187.9467"/>
      <polygon fill="#000000" stroke="#000000" points="840.4203,-189.8423 843.3804,-179.6694 834.7225,-185.776 840.4203,-189.8423"/>
    </g>
    <!-- streamTestsTck -->
    <g id="node25" class="node">
      <title>streamTestsTck</title>
      <ellipse fill="none" stroke="#000000" cx="1104.567" cy="-234" rx="68.4888" ry="18"/>
      <text fill="#000000" text-anchor="middle" x="1104.567" y="-230.3" font-family="Times,serif" font-size="14.00">streamTestsTck</text>
    </g>
    <!-- streamTestsTck to stream -->
    <g id="edge56" class="edge">
      <title>streamTestsTck to stream</title>
      <path fill="none" stroke="#000000" d="M1080.6017,-216.9158C1043.3116,-190.3328 971.5285,-139.1607 931.4407,-110.5833"/>
      <polygon fill="#000000" stroke="#000000" points="933.3289,-107.631 923.1544,-104.6762 929.2656,-113.331 933.3289,-107.631"/>
    </g>
    <!-- streamTestsTck to streamTestkit -->
    <g id="edge57" class="edge">
      <title>streamTestsTck to streamTestkit</title>
      <path fill="none" stroke="#000000" d="M1058.8728,-220.6261C1017.019,-208.3762 955.0825,-190.2484 911.1796,-177.3988"/>
      <polygon fill="#000000" stroke="#000000" points="912.1249,-174.0287 901.5444,-174.5788 910.1586,-180.7469 912.1249,-174.0287"/>
    </g>
    <!-- actorTyped -->
    <g id="node26" class="node">
      <title>actorTyped</title>
      <ellipse fill="green" stroke="#000000" cx="1345.567" cy="-90" rx="53.0913" ry="18"/>
      <text fill="white" text-anchor="middle" x="1345.567" y="-86.3" font-family="Times,serif" font-size="14.00">actorTyped</text>
    </g>
    <!-- actorTyped to actor -->
    <g id="edge59" class="edge">
      <title>actorTyped to actor</title>
      <path fill="none" stroke="#000000" d="M1292.9821,-86.897C1170.9012,-79.5405 858.8279,-59.857 598.567,-36 556.2294,-32.1191 507.789,-26.5938 474.9911,-22.6909"/>
      <polygon fill="#000000" stroke="#000000" points="475.2649,-19.1987 464.9196,-21.4848 474.4325,-26.1491 475.2649,-19.1987"/>
    </g>
    <!-- persistenceTyped -->
    <g id="node27" class="node">
      <title>persistenceTyped</title>
      <ellipse fill="none" stroke="#000000" cx="1211.567" cy="-306" rx="75.2868" ry="18"/>
      <text fill="#000000" text-anchor="middle" x="1211.567" y="-302.3" font-family="Times,serif" font-size="14.00">persistenceTyped</text>
    </g>
    <!-- persistenceTyped to persistence -->
    <g id="edge60" class="edge">
      <title>persistenceTyped to persistence</title>
      <path fill="none" stroke="#000000" d="M1140.3765,-300.0122C1044.631,-291.2895 879.8774,-273.7341 823.567,-252 783.1731,-236.4092 742.9596,-206.3669 717.7266,-185.2951"/>
      <polygon fill="#000000" stroke="#000000" points="719.9665,-182.6055 710.0792,-178.7985 715.4344,-187.9403 719.9665,-182.6055"/>
    </g>
    <!-- persistenceTyped to persistenceQuery -->
    <g id="edge61" class="edge">
      <title>persistenceTyped to persistenceQuery</title>
      <path fill="none" stroke="#000000" d="M1157.7412,-293.2936C1105.2571,-280.9039 1025.4468,-262.0634 969.9268,-248.9571"/>
      <polygon fill="#000000" stroke="#000000" points="970.3913,-245.4706 959.8547,-246.5794 968.783,-252.2834 970.3913,-245.4706"/>
    </g>
    <!-- persistenceTyped to actorTyped -->
    <g id="edge62" class="edge">
      <title>persistenceTyped to actorTyped</title>
      <path fill="none" stroke="#000000" d="M1212.4918,-287.8233C1214.9752,-255.7073 1224.1018,-188.155 1257.567,-144 1268.8804,-129.0727 1285.6194,-117.3346 1301.4699,-108.6691"/>
      <polygon fill="#000000" stroke="#000000" points="1303.3769,-111.6233 1310.6521,-103.9212 1300.1617,-105.4054 1303.3769,-111.6233"/>
    </g>
    <!-- actorTypedTests -->
    <g id="node28" class="node">
      <title>actorTypedTests</title>
      <ellipse fill="none" stroke="#000000" cx="1414.567" cy="-234" rx="72.2875" ry="18"/>
      <text fill="#000000" text-anchor="middle" x="1414.567" y="-230.3" font-family="Times,serif" font-size="14.00">actorTypedTests</text>
    </g>
    <!-- persistenceTyped to actorTypedTests -->
    <g id="edge63" class="edge">
      <title>persistenceTyped to actorTypedTests</title>
      <path fill="none" stroke="#000000" d="M1254.1224,-290.9064C1285.8674,-279.6471 1329.3844,-264.2125 1363.0892,-252.2581"/>
      <polygon fill="#000000" stroke="#000000" points="1364.5081,-255.4686 1372.7629,-248.8271 1362.1681,-248.8712 1364.5081,-255.4686"/>
    </g>
    <!-- actorTestkitTyped -->
    <g id="node29" class="node">
      <title>actorTestkitTyped</title>
      <ellipse fill="none" stroke="#000000" cx="1345.567" cy="-162" rx="78.7863" ry="18"/>
      <text fill="#000000" text-anchor="middle" x="1345.567" y="-158.3" font-family="Times,serif" font-size="14.00">actorTestkitTyped</text>
    </g>
    <!-- persistenceTyped to actorTestkitTyped -->
    <g id="edge64" class="edge">
      <title>persistenceTyped to actorTestkitTyped</title>
      <path fill="none" stroke="#000000" d="M1227.998,-288.3428C1251.506,-263.0804 1294.8712,-216.4791 1321.8552,-187.4813"/>
      <polygon fill="#000000" stroke="#000000" points="1324.7514,-189.5067 1329.0015,-179.8017 1319.6269,-184.738 1324.7514,-189.5067"/>
    </g>
    <!-- actorTypedTests to actorTyped -->
    <g id="edge78" class="edge">
      <title>actorTypedTests to actorTyped</title>
      <path fill="none" stroke="#000000" d="M1425.3005,-215.9904C1435.1002,-196.9909 1446.2789,-166.715 1433.567,-144 1424.5664,-127.9168 1408.6,-116.0419 1392.7152,-107.5893"/>
      <polygon fill="#000000" stroke="#000000" points="1393.9414,-104.2914 1383.4253,-103.0021 1390.8421,-110.5679 1393.9414,-104.2914"/>
    </g>
    <!-- actorTypedTests to actorTestkitTyped -->
    <g id="edge79" class="edge">
      <title>actorTypedTests to actorTestkitTyped</title>
      <path fill="none" stroke="#000000" d="M1397.5108,-216.2022C1389.0715,-207.396 1378.7424,-196.6179 1369.5242,-186.9989"/>
      <polygon fill="#000000" stroke="#000000" points="1371.873,-184.3913 1362.4269,-179.593 1366.8191,-189.2346 1371.873,-184.3913"/>
    </g>
    <!-- actorTestkitTyped to testkit -->
    <g id="edge76" class="edge">
      <title>actorTestkitTyped to testkit</title>
      <path fill="none" stroke="#000000" d="M1268.3871,-158.2332C1082.1943,-148.9978 612.1795,-124.7623 455.567,-108 430.3404,-105.3 402.2364,-101.0183 379.8963,-97.3082"/>
      <polygon fill="#000000" stroke="#000000" points="380.193,-93.8089 369.7502,-95.5971 379.0289,-100.7114 380.193,-93.8089"/>
    </g>
    <!-- actorTestkitTyped to actorTyped -->
    <g id="edge77" class="edge">
      <title>actorTestkitTyped to actorTyped</title>
      <path fill="none" stroke="#000000" d="M1345.567,-143.8314C1345.567,-136.131 1345.567,-126.9743 1345.567,-118.4166"/>
      <polygon fill="#000000" stroke="#000000" points="1349.0671,-118.4132 1345.567,-108.4133 1342.0671,-118.4133 1349.0671,-118.4132"/>
    </g>
    <!-- clusterTyped -->
    <g id="node30" class="node">
      <title>clusterTyped</title>
      <ellipse fill="none" stroke="#000000" cx="1211.567" cy="-666" rx="59.2899" ry="18"/>
      <text fill="#000000" text-anchor="middle" x="1211.567" y="-662.3" font-family="Times,serif" font-size="14.00">clusterTyped</text>
    </g>
    <!-- clusterTyped to remoteTests -->
    <g id="edge65" class="edge">
      <title>clusterTyped to remoteTests</title>
      <path fill="none" stroke="#000000" d="M1173.2508,-652.2062C1040.8692,-604.5488 602.9907,-446.9125 458.3751,-394.8509"/>
      <polygon fill="#000000" stroke="#000000" points="459.4728,-391.5263 448.8784,-391.4321 457.1017,-398.1125 459.4728,-391.5263"/>
    </g>
    <!-- clusterTyped to clusterSharding -->
    <g id="edge66" class="edge">
      <title>clusterTyped to clusterSharding</title>
      <path fill="none" stroke="#000000" d="M1154.9774,-660.6837C1071.286,-652.4462 909.7228,-635.1079 773.567,-612 766.5711,-610.8127 759.2724,-609.4357 752.0318,-607.9822"/>
      <polygon fill="#000000" stroke="#000000" points="752.7288,-604.5524 742.2283,-605.9635 751.3169,-611.4085 752.7288,-604.5524"/>
    </g>
    <!-- clusterTyped to persistenceTyped -->
    <g id="edge67" class="edge">
      <title>clusterTyped to persistenceTyped</title>
      <path fill="none" stroke="#000000" d="M1211.567,-647.8146C1211.567,-620.4983 1211.567,-567.25 1211.567,-522 1211.567,-522 1211.567,-522 1211.567,-450 1211.567,-409.876 1211.567,-363.4631 1211.567,-334.4177"/>
      <polygon fill="#000000" stroke="#000000" points="1215.0671,-334.1853 1211.567,-324.1854 1208.0671,-334.1854 1215.0671,-334.1853"/>
    </g>
    <!-- clusterTyped to actorTypedTests -->
    <g id="edge68" class="edge">
      <title>clusterTyped to actorTypedTests</title>
      <path fill="none" stroke="#000000" d="M1254.0248,-653.2794C1277.9275,-644.5391 1307.1775,-631.0391 1328.567,-612 1363.5825,-580.8321 1383.567,-568.8778 1383.567,-522 1383.567,-522 1383.567,-522 1383.567,-378 1383.567,-337.0037 1395.7237,-290.8829 1404.8115,-262.1326"/>
      <polygon fill="#000000" stroke="#000000" points="1408.2229,-262.9603 1407.9927,-252.3679 1401.5672,-260.7919 1408.2229,-262.9603"/>
    </g>
    <!-- clusterTyped to actorTestkitTyped -->
    <g id="edge69" class="edge">
      <title>clusterTyped to actorTestkitTyped</title>
      <path fill="none" stroke="#000000" d="M1234.426,-649.2792C1264.7706,-624.9582 1314.567,-576.7119 1314.567,-522 1314.567,-522 1314.567,-522 1314.567,-306 1314.567,-265.0037 1326.7237,-218.8829 1335.8115,-190.1326"/>
      <polygon fill="#000000" stroke="#000000" points="1339.2229,-190.9603 1338.9927,-180.3679 1332.5672,-188.7919 1339.2229,-190.9603"/>
    </g>
    <!-- clusterTyped to clusterTyped -->
    <g id="edge70" class="edge">
      <title>clusterTyped to clusterTyped</title>
      <path fill="none" stroke="#000000" d="M1252.0501,-679.1704C1271.5224,-680.7964 1288.7117,-676.4063 1288.7117,-666 1288.7117,-657.4636 1277.1448,-652.9756 1262.2393,-652.5358"/>
      <polygon fill="#000000" stroke="#000000" points="1261.9451,-649.0428 1252.0501,-652.8296 1262.1469,-656.0398 1261.9451,-649.0428"/>
    </g>
    <!-- streamTyped -->
    <g id="node31" class="node">
      <title>streamTyped</title>
      <ellipse fill="none" stroke="#000000" cx="1514.567" cy="-306" rx="59.2899" ry="18"/>
      <text fill="#000000" text-anchor="middle" x="1514.567" y="-302.3" font-family="Times,serif" font-size="14.00">streamTyped</text>
    </g>
    <!-- streamTyped to stream -->
    <g id="edge71" class="edge">
      <title>streamTyped to stream</title>
      <path fill="none" stroke="#000000" d="M1519.7639,-287.8149C1524.1374,-268.9383 1528.1498,-239.0095 1517.567,-216 1497.0206,-171.3276 1478.7603,-163.3736 1433.567,-144 1346.4202,-106.6416 1059.2679,-94.5036 947.5735,-91.1371"/>
      <polygon fill="#000000" stroke="#000000" points="947.4225,-87.6313 937.3247,-90.8382 947.2183,-94.6284 947.4225,-87.6313"/>
    </g>
    <!-- streamTyped to streamTestkit -->
    <g id="edge72" class="edge">
      <title>streamTyped to streamTestkit</title>
      <path fill="none" stroke="#000000" d="M1457.6206,-300.6634C1333.2482,-288.8748 1046.8584,-260.9505 1027.567,-252 1006.4633,-242.2087 1009.0943,-228.6459 989.567,-216 965.1411,-200.1819 935.3165,-187.4519 910.2985,-178.3338"/>
      <polygon fill="#000000" stroke="#000000" points="911.2082,-174.9428 900.6135,-174.8949 908.8659,-181.5393 911.2082,-174.9428"/>
    </g>
    <!-- streamTyped to actorTyped -->
    <g id="edge73" class="edge">
      <title>streamTyped to actorTyped</title>
      <path fill="none" stroke="#000000" d="M1537.5132,-289.2074C1548.5411,-279.6807 1560.6292,-266.7264 1566.567,-252 1572.5502,-237.1608 1574.3718,-229.9673 1566.567,-216 1531.6822,-153.5714 1452.5127,-119.7076 1399.0355,-103.2493"/>
      <polygon fill="#000000" stroke="#000000" points="1399.9483,-99.8694 1389.3656,-100.3758 1397.9543,-106.5794 1399.9483,-99.8694"/>
    </g>
    <!-- streamTyped to actorTypedTests -->
    <g id="edge74" class="edge">
      <title>streamTyped to actorTypedTests</title>
      <path fill="none" stroke="#000000" d="M1491.3736,-289.3008C1478.0618,-279.7163 1461.1507,-267.5403 1446.5874,-257.0547"/>
      <polygon fill="#000000" stroke="#000000" points="1448.4894,-254.1113 1438.329,-251.1086 1444.3992,-259.7921 1448.4894,-254.1113"/>
    </g>
    <!-- streamTyped to actorTestkitTyped -->
    <g id="edge75" class="edge">
      <title>streamTyped to actorTestkitTyped</title>
      <path fill="none" stroke="#000000" d="M1515.6296,-287.8618C1515.7993,-267.8966 1512.9798,-235.9882 1495.567,-216 1477.0272,-194.7181 1449.4559,-181.8227 1422.9905,-174.0092"/>
      <polygon fill="#000000" stroke="#000000" points="1423.8784,-170.6236 1413.3088,-171.3544 1422.0272,-177.3744 1423.8784,-170.6236"/>
    </g>
  </g>
</svg>
